<svg xmlns="http://www.w3.org/2000/svg" width="466" height="423.891" viewBox="0 0 466 423.891"><path fill-rule="evenodd" clip-rule="evenodd" d="M242.133 168.48h47.146v48.195h23.835c11.008 0 22.33-1.962 32.755-5.494 5.124-1.734 10.873-4.152 15.927-7.19-6.656-8.69-10.053-19.66-11.054-30.477-1.358-14.71 1.61-33.855 11.564-45.368l4.956-5.732 5.905 4.747c14.867 11.945 27.372 28.637 29.577 47.664 17.9-5.266 38.92-4.02 54.7 5.088l6.476 3.734-3.406 6.652c-13.345 26.046-41.246 34.113-68.524 32.687C351.17 324.648 262.31 372.78 154.56 372.78c-55.665 0-106.737-20.81-135.82-70.198l-.477-.807-4.238-8.62C4.195 271.415.93 247.6 3.145 223.802l.664-7.127h40.313V168.48h47.143v-47.144h94.292V74.19h56.573v94.29z"/><path d="M86.21 179.744h3.226v34.052H86.21v-34.052zm-6.19 0h3.354v34.052H80.02v-34.052zm-6.192 0h3.354v34.052h-3.354v-34.052zm-6.192 0h3.354v34.052h-3.354v-34.052zm-6.19 0H64.8v34.052h-3.354v-34.052zm-6.062 0h3.224v34.052h-3.224v-34.052zm-3.403-3.406h40.86v40.86H51.98v-40.86zm81.374-43.74h3.23v34.05h-3.23V132.6zm-6.19 0h3.355v34.05h-3.356V132.6zm-6.19 0h3.353v34.05h-3.354V132.6zm-6.193 0h3.356v34.05h-3.354V132.6zm-6.186 0h3.352v34.05h-3.352V132.6zm-6.062 0h3.223v34.05h-3.222V132.6zm-3.406-3.405h40.863v40.86H99.123v-40.86zm34.228 50.55h3.23v34.053h-3.23v-34.052zm-6.19 0h3.355v34.053h-3.356v-34.052zm-6.19 0h3.353v34.053h-3.354v-34.052zm-6.193 0h3.356v34.053h-3.354v-34.052zm-6.186 0h3.352v34.053h-3.352v-34.052zm-6.062 0h3.223v34.053h-3.222v-34.052zm-3.406-3.405h40.863v40.86H99.123v-40.86zm81.374 3.406h3.226v34.052H180.5v-34.052zm-6.19 0h3.355v34.052h-3.355v-34.052zm-6.19 0h3.354v34.052h-3.354v-34.052zm-6.192 0h3.354v34.052h-3.354v-34.052zm-6.192 0h3.354v34.052h-3.354v-34.052zm-6.06 0h3.222v34.052h-3.222v-34.052zm-3.405-3.406h40.863v40.86h-40.86v-40.86zm34.23-43.74h3.226v34.05h-3.23V132.6zm-6.19 0h3.355v34.05h-3.355V132.6zm-6.19 0h3.354v34.05h-3.354V132.6zm-6.192 0h3.354v34.05h-3.354V132.6zm-6.192 0h3.354v34.05h-3.354V132.6zm-6.06 0h3.222v34.05h-3.222V132.6zm-3.405-3.405h40.863v40.86h-40.86v-40.86zm81.377 50.55h3.226v34.053h-3.226v-34.052zm-6.19 0h3.354v34.053h-3.352v-34.052zm-6.192 0h3.354v34.053h-3.356v-34.052zm-6.192 0h3.354v34.053h-3.354v-34.052zm-6.19 0h3.355v34.053h-3.354v-34.052zm-6.062 0h3.226v34.053h-3.224v-34.052zm-3.403-3.405h40.86v40.86h-40.86v-40.86zm34.23-43.74h3.226v34.05h-3.226V132.6zm-6.19 0h3.354v34.05h-3.352V132.6zm-6.192 0h3.354v34.05h-3.356V132.6zm-6.192 0h3.354v34.05h-3.354V132.6zm-6.19 0h3.355v34.05h-3.354V132.6zm-6.062 0h3.226v34.05h-3.224V132.6zm-3.403-3.405h40.86v40.86h-40.86v-40.86zm34.23-43.743h3.226v34.054h-3.226V85.45zm-6.19 0h3.354v34.054h-3.352V85.45zm-6.192 0h3.354v34.054h-3.356V85.45zm-6.192 0h3.354v34.054h-3.354V85.45zm-6.19 0h3.355v34.054h-3.354V85.45zm-6.062 0h3.226v34.054h-3.224V85.45zm-3.403-3.402h40.86v40.86h-40.86v-40.86zm81.375 97.696h3.224v34.052H274.8v-34.052zm-6.19 0h3.352v34.052h-3.352v-34.052zm-6.194 0h3.354v34.052h-3.354v-34.052zm-6.19 0h3.354v34.052h-3.354v-34.052zm-6.192 0h3.354v34.052h-3.354v-34.052zm-6.062 0h3.227v34.052h-3.225v-34.052zm-3.403-3.406h40.86v40.86h-40.86v-40.86zM137.428 283.445c6.225 0 11.27 5.05 11.27 11.272 0 6.225-5.045 11.27-11.27 11.27-6.226 0-11.272-5.045-11.272-11.27 0-6.223 5.046-11.272 11.272-11.272" fill-rule="evenodd" clip-rule="evenodd" fill="#FFF"/><path fill-rule="evenodd" clip-rule="evenodd" d="M137.428 286.644c1.03 0 2.015.194 2.923.546a3.303 3.303 0 0 0-1.65 2.854 3.296 3.296 0 0 0 6.188 1.578 8.072 8.072 0 0 1-7.458 11.167 8.074 8.074 0 0 1-.002-16.148"/><path fill="#FFF" d="M167.394 364.677c-27.916-13.247-43.24-31.256-51.765-50.915-10.37 2.96-22.837 4.852-37.32 5.664a306.86 306.86 0 0 1-17.22.464c-6.94 0-14.26-.205-21.94-.613 25.6 25.585 57.096 45.283 115.41 45.645 4.305 0 8.58-.085 12.833-.245z"/></svg>