<svg xmlns="http://www.w3.org/2000/svg" width="466" height="423.891" viewBox="0 0 466 423.891"><path fill-rule="evenodd" clip-rule="evenodd" d="M242.133 168.48h47.146v48.195h23.836c11.008 0 22.33-1.962 32.755-5.494 5.124-1.735 10.873-4.153 15.927-7.192-6.656-8.69-10.053-19.66-11.054-30.476-1.358-14.71 1.61-33.855 11.564-45.368l4.956-5.732 5.905 4.747c14.867 11.945 27.372 28.637 29.577 47.664 17.9-5.266 38.92-4.02 54.7 5.088l6.476 3.734-3.407 6.652c-13.345 26.046-41.246 34.113-68.524 32.687C351.17 324.648 262.31 372.78 154.56 372.78c-55.665 0-106.737-20.81-135.82-70.198l-.477-.807-4.238-8.62C4.195 271.414.93 247.6 3.145 223.802l.664-7.127h40.314v-48.194h47.143v-47.145h94.292V74.19h56.573v94.29z"/><g fill-rule="evenodd" clip-rule="evenodd" fill="#FFF"><path d="M86.21 179.744h3.226v34.052H86.21v-34.052zm-6.19 0h3.354v34.052H80.02v-34.052zm-6.192 0h3.354v34.052h-3.354v-34.052zm-6.192 0h3.354v34.052h-3.354v-34.052zm-6.19 0H64.8v34.052h-3.354v-34.052zm-6.062 0h3.224v34.052h-3.224v-34.052zm-3.403-3.406h40.86v40.86H51.98v-40.86zM133.354 132.598h3.23v34.05h-3.23V132.6zm-6.19 0h3.355v34.05h-3.355V132.6zm-6.19 0h3.353v34.05h-3.354V132.6zm-6.193 0h3.355v34.05h-3.354V132.6zm-6.187 0h3.352v34.05h-3.352V132.6zm-6.062 0h3.223v34.05h-3.222V132.6zm-3.406-3.405h40.863v40.86H99.124v-40.86zM133.354 179.744h3.23v34.052h-3.23v-34.052zm-6.19 0h3.355v34.052h-3.355v-34.052zm-6.19 0h3.353v34.052h-3.354v-34.052zm-6.193 0h3.355v34.052h-3.354v-34.052zm-6.187 0h3.352v34.052h-3.352v-34.052zm-6.062 0h3.223v34.052h-3.222v-34.052zm-3.406-3.406h40.863v40.86H99.124v-40.86zM180.5 179.744h3.226v34.052H180.5v-34.052zm-6.19 0h3.355v34.052h-3.355v-34.052zm-6.19 0h3.354v34.052h-3.354v-34.052zm-6.192 0h3.354v34.052h-3.354v-34.052zm-6.192 0h3.354v34.052h-3.354v-34.052zm-6.06 0h3.222v34.052h-3.222v-34.052zm-3.405-3.406h40.862v40.86h-40.86v-40.86zM180.5 132.598h3.226v34.05H180.5V132.6zm-6.19 0h3.355v34.05h-3.355V132.6zm-6.19 0h3.354v34.05h-3.354V132.6zm-6.192 0h3.354v34.05h-3.354V132.6zm-6.192 0h3.354v34.05h-3.354V132.6zm-6.06 0h3.222v34.05h-3.222V132.6zm-3.405-3.405h40.862v40.86h-40.86v-40.86zM227.647 179.744h3.226v34.052h-3.226v-34.052zm-6.19 0h3.354v34.052h-3.353v-34.052zm-6.192 0h3.354v34.052h-3.355v-34.052zm-6.192 0h3.354v34.052h-3.354v-34.052zm-6.19 0h3.355v34.052h-3.354v-34.052zm-6.062 0h3.225v34.052h-3.224v-34.052zm-3.404-3.406h40.86v40.86h-40.86v-40.86zM227.647 132.598h3.226v34.05h-3.226V132.6zm-6.19 0h3.354v34.05h-3.353V132.6zm-6.192 0h3.354v34.05h-3.355V132.6zm-6.192 0h3.354v34.05h-3.354V132.6zm-6.19 0h3.355v34.05h-3.354V132.6zm-6.062 0h3.225v34.05h-3.224V132.6zm-3.404-3.405h40.86v40.86h-40.86v-40.86zM227.647 85.45h3.226v34.054h-3.226V85.45zm-6.19 0h3.354v34.054h-3.353V85.45zm-6.192 0h3.354v34.054h-3.355V85.45zm-6.192 0h3.354v34.054h-3.354V85.45zm-6.19 0h3.355v34.054h-3.354V85.45zm-6.062 0h3.225v34.054h-3.224V85.45zm-3.404-3.402h40.86v40.86h-40.86v-40.86zM274.792 179.744h3.224v34.052h-3.224v-34.052zm-6.19 0h3.352v34.052h-3.352v-34.052zm-6.194 0h3.354v34.052h-3.354v-34.052zm-6.19 0h3.354v34.052h-3.354v-34.052zm-6.192 0h3.354v34.052h-3.354v-34.052zm-6.062 0h3.227v34.052h-3.226v-34.052zm-3.403-3.406h40.86v40.86h-40.86v-40.86z"/></g><path fill-rule="evenodd" clip-rule="evenodd" fill="#FFF" d="M137.428 283.445c6.225 0 11.27 5.05 11.27 11.272 0 6.225-5.045 11.27-11.27 11.27-6.226 0-11.272-5.045-11.272-11.27 0-6.223 5.046-11.272 11.272-11.272"/><path fill-rule="evenodd" clip-rule="evenodd" d="M137.428 286.644c1.03 0 2.015.194 2.923.546-.983.57-1.65 1.635-1.65 2.854 0 1.82 1.477 3.293 3.297 3.293 1.247 0 2.33-.693 2.89-1.715.395.953.615 2 .615 3.097 0 4.457-3.615 8.072-8.073 8.072-4.46 0-8.075-3.615-8.075-8.073 0-4.462 3.616-8.076 8.073-8.076"/><path fill="#FFF" d="M167.394 364.677c-27.916-13.247-43.24-31.256-51.765-50.915-10.37 2.96-22.836 4.852-37.318 5.664-5.457.307-11.196.464-17.22.464-6.94 0-14.26-.205-21.94-.613 25.6 25.585 57.095 45.283 115.41 45.645 4.304 0 8.578-.085 12.832-.245z"/></svg>