<?xml version="1.0" standalone="no"?>
<!DOCTYPE svg PUBLIC "-//W3C//DTD SVG 20010904//EN"
 "http://www.w3.org/TR/2001/REC-SVG-20010904/DTD/svg10.dtd">
<svg version="1.0" xmlns="http://www.w3.org/2000/svg"
 width="1126.000000pt" height="1126.000000pt" viewBox="0 0 1126.000000 1126.000000"
 preserveAspectRatio="xMidYMid meet">
<metadata>
Created by potrace 1.11, written by Peter Selinger 2001-2013
</metadata>
<g transform="translate(0.000000,1126.000000) scale(0.100000,-0.100000)"
fill="#000000" stroke="none">
<path d="M5358 11255 c-2 -2 -55 -6 -118 -9 -63 -3 -126 -8 -140 -11 -14 -2
-52 -6 -85 -9 -33 -3 -91 -10 -130 -15 -38 -6 -88 -13 -110 -16 -78 -11 -211
-36 -305 -57 -52 -11 -104 -22 -115 -23 -142 -23 -596 -167 -839 -267 -67 -27
-139 -57 -161 -65 -84 -34 -486 -243 -610 -318 -236 -142 -515 -339 -686 -483
-13 -11 -46 -39 -74 -62 -191 -161 -436 -403 -611 -605 -167 -192 -362 -451
-469 -623 -5 -9 -26 -41 -46 -72 -20 -30 -58 -93 -85 -140 -27 -47 -53 -92
-59 -102 -91 -154 -354 -722 -360 -778 0 -3 -3 -9 -6 -15 -32 -51 -203 -644
-223 -769 -4 -21 -8 -42 -11 -46 -2 -4 -7 -22 -9 -41 -3 -19 -7 -43 -9 -54 -3
-11 -8 -40 -12 -65 -4 -25 -9 -54 -11 -65 -2 -10 -6 -37 -9 -60 -3 -22 -8 -58
-11 -80 -10 -69 -12 -88 -19 -155 -3 -36 -8 -74 -10 -85 -12 -59 -20 -283 -19
-545 0 -323 5 -410 39 -705 81 -692 340 -1459 706 -2095 111 -194 328 -516
442 -656 206 -254 288 -345 482 -538 159 -158 367 -339 546 -475 114 -87 422
-301 434 -301 2 0 35 -19 72 -43 217 -138 624 -336 928 -450 214 -80 581 -190
742 -221 10 -2 52 -11 93 -19 105 -22 120 -25 255 -47 121 -19 164 -25 265
-35 30 -4 69 -8 85 -10 97 -12 304 -20 540 -20 309 0 450 8 670 36 44 6 98 13
120 15 88 11 286 47 395 70 143 32 131 29 155 37 11 3 31 8 45 11 80 14 390
111 580 181 1096 407 2081 1189 2716 2157 48 73 95 145 104 159 46 67 191 332
271 494 117 241 184 401 270 655 35 101 116 369 124 410 2 8 17 74 33 145 17
72 33 144 36 160 8 47 16 88 21 110 2 11 7 43 10 70 4 28 8 57 10 65 2 8 7 38
10 65 4 28 8 61 11 75 2 14 6 54 10 90 3 36 8 79 10 95 26 199 26 775 0 1045
-9 93 -18 171 -21 192 -2 13 -6 43 -9 68 -5 38 -33 206 -51 305 -19 106 -95
422 -114 475 -5 14 -17 52 -26 85 -101 352 -342 897 -539 1220 -47 77 -89 147
-93 155 -4 8 -11 20 -15 25 -5 6 -51 72 -103 148 -78 114 -217 301 -260 351
-5 6 -32 38 -60 71 -27 33 -54 65 -60 71 -5 6 -35 39 -65 74 -106 122 -365
377 -509 500 -35 30 -69 60 -75 66 -6 5 -83 66 -171 134 -522 402 -1109 709
-1739 910 -121 38 -359 103 -416 114 -14 2 -32 7 -40 10 -8 3 -28 7 -45 10
-16 2 -64 11 -105 20 -41 8 -88 18 -105 20 -107 18 -228 36 -275 41 -30 3 -66
8 -80 10 -22 3 -66 8 -210 21 -57 6 -687 13 -692 9z"/>
</g>
</svg>
