<svg width="256" height="256" viewBox="0 0 256 256" xmlns="http://www.w3.org/2000/svg" preserveAspectRatio="xMinYMin meet"><path d="M0 222.99C0 241.224 14.78 256 33.01 256h189.98c18.233 0 33.01-14.78 33.01-33.01V33.01C256 14.776 241.22 0 222.99 0H33.01C14.776 0 0 14.78 0 33.01v189.98z"/><path d="M106.158 113.238V76.985h31.91c3.04 0 5.97.253 8.793.76 2.823.506 5.32 1.41 7.49 2.713 2.172 1.303 3.908 3.112 5.21 5.427 1.303 2.316 1.955 5.283 1.955 8.9 0 6.513-1.954 11.217-5.862 14.11-3.907 2.896-8.9 4.343-14.98 4.343H106.16zM72.075 50.5v155h75.112c6.947 0 13.713-.868 20.298-2.605 6.585-1.737 12.446-4.414 17.584-8.032 5.136-3.618 9.225-8.286 12.264-14.002 3.04-5.716 4.56-12.482 4.56-20.297 0-9.697-2.353-17.982-7.056-24.856-4.704-6.875-11.832-11.687-21.384-14.437 6.947-3.328 12.194-7.598 15.74-12.808 3.545-5.21 5.318-11.722 5.318-19.538 0-7.236-1.194-13.314-3.582-18.235-2.388-4.922-5.753-8.865-10.095-11.832-4.34-2.967-9.55-5.102-15.63-6.404-6.078-1.303-12.808-1.954-20.19-1.954h-72.94zm34.083 128.515v-42.55h37.12c7.382 0 13.316 1.702 17.803 5.103 4.487 3.4 6.73 9.08 6.73 17.04 0 4.054-.687 7.382-2.062 9.987-1.375 2.605-3.22 4.668-5.536 6.187-2.315 1.52-4.993 2.605-8.032 3.257-3.04.65-6.223.975-9.552.975h-36.47z" fill="#FFF"/></svg>