<svg baseProfile="tiny" height="512" viewBox="0 0 512 512" width="512" xmlns="http://www.w3.org/2000/svg"><path d="M253.806 1.783c-20.678.098-40.426 1.86-57.803 4.935-51.187 9.044-60.48 27.97-60.48 62.877v46.103h120.963v15.366H90.126c-35.155 0-65.937 21.13-75.563 61.325-11.107 46.074-11.603 74.83 0 122.938 8.6 35.808 29.13 61.324 64.286 61.324h41.588v-55.27c0-39.92 34.544-75.142 75.564-75.142h120.822c33.632 0 60.48-27.69 60.48-61.466V69.594c0-32.776-27.654-57.406-60.48-62.877-20.78-3.46-42.34-5.033-63.018-4.934zM188.39 38.86c12.495 0 22.7 10.37 22.7 23.12 0 12.705-10.205 22.982-22.7 22.982-12.54 0-22.698-10.277-22.698-22.982 0-12.75 10.157-23.12 22.7-23.12z"/><path d="M392.387 131.062v53.712c0 41.648-35.303 76.692-75.562 76.692H196.002c-33.094 0-60.48 28.327-60.48 61.47V438.12c0 32.778 28.503 52.064 60.48 61.464 38.29 11.26 75.004 13.3 120.822 0 30.45-8.812 60.48-26.56 60.48-61.463v-46.104h-120.82v-15.364h181.298c35.156 0 48.26-24.52 60.48-61.324 12.63-37.895 12.094-74.335 0-122.94-8.686-34.992-25.28-61.324-60.48-61.324h-45.395zm-67.95 291.688c12.54 0 22.7 10.27 22.7 22.975 0 12.75-10.16 23.124-22.7 23.124-12.492 0-22.695-10.376-22.695-23.125 0-12.706 10.202-22.975 22.696-22.975z"/></svg>